PathFileType	4	(X/Y/Z)	C:/Users/dbak576/Desktop/Duncan Bakke Modelling Files/Output/AB08/StaticAB08.trc	
DataRate	CameraRate	NumFrames	NumMarkers	Units	OrigDataRate	OrigDataStartFrame	OrigNumFrames	
200.00	200.00	4	42	mm	200.00	79	125	
Frame#	Time	LASI			RASI			LPSI			RPSI			LTH1			LTH2			LTH3			LTH4			LMFC			LLFC			LTB1			LTB2			LTB3			LTB4			LMMAL			LLMAL			LCAL			LToe			LMT1			LMT5			RTH1			RTH2			RTH3			RTH4			RMFC			RLFC			RTB1			RTB2			RTB3			RTB4			RMMAL			RLMAL			RCAL			RToe			RMT1			RMT5			C7			T10			LACR1			RACR1			CLAV			RBack			
		X1	Y1	Z1	X2	Y2	Z2	X3	Y3	Z3	X4	Y4	Z4	X5	Y5	Z5	X6	Y6	Z6	X7	Y7	Z7	X8	Y8	Z8	X9	Y9	Z9	X10	Y10	Z10	X11	Y11	Z11	X12	Y12	Z12	X13	Y13	Z13	X14	Y14	Z14	X15	Y15	Z15	X16	Y16	Z16	X17	Y17	Z17	X18	Y18	Z18	X19	Y19	Z19	X20	Y20	Z20	X21	Y21	Z21	X22	Y22	Z22	X23	Y23	Z23	X24	Y24	Z24	X25	Y25	Z25	X26	Y26	Z26	X27	Y27	Z27	X28	Y28	Z28	X29	Y29	Z29	X30	Y30	Z30	X31	Y31	Z31	X32	Y32	Z32	X33	Y33	Z33	X34	Y34	Z34	X35	Y35	Z35	X36	Y36	Z36	X37	Y37	Z37	X38	Y38	Z38	X39	Y39	Z39	X40	Y40	Z40	X41	Y41	Z41	X42	Y42	Z42	

79	0.390	352.85367	918.90277	973.11255	603.02734	916.70520	990.88361	416.25189	696.60413	1007.98242	542.41980	688.22675	1012.96136	335.03973	919.88324	681.17133	324.33481	897.66138	649.24927	370.74399	897.85687	601.58752	354.40332	909.68878	637.54382	442.64108	829.25470	508.66907	318.91467	800.89288	520.68256	288.88928	770.17224	428.49564	286.28412	760.15985	344.65955	300.82675	812.66583	341.16116	296.82214	805.37994	381.07047	383.33978	797.90234	121.32590	298.26178	774.41388	116.18995	338.79993	705.38116	52.32735	354.92017	1008.82886	46.13800	384.63715	920.41711	48.07990	262.90033	902.04694	40.26866	608.51904	918.42883	705.39099	598.13165	899.96503	642.58875	642.27350	861.72089	623.95166	649.62854	880.79193	678.68628	519.92847	829.61566	507.50153	645.97424	804.06421	531.28107	661.34668	815.65198	418.61539	652.43048	827.32874	381.49292	646.47992	831.95117	331.00797	678.36035	788.52936	335.20920	583.93652	799.74554	122.98943	671.33954	771.35034	113.57567	625.31891	700.60602	57.24548	617.67261	1004.17462	42.35903	586.58081	911.23242	42.17734	708.63849	891.62384	43.77929	448.25836	727.24207	1498.36438	453.96509	696.00964	1242.27197	286.78741	796.33722	1478.33997	608.50745	778.62976	1490.70520	458.84055	889.89520	1455.38611	570.46552	680.95599	1396.47473 
80	0.395	352.79535	918.94507	973.07739	602.96771	916.70050	990.88287	416.29349	696.62543	1007.96759	542.43945	688.26288	1012.96039	335.04791	919.87378	681.18750	324.34631	897.68719	649.29968	370.75293	897.87000	601.60730	354.39514	909.70050	637.54987	442.64450	829.22565	508.68466	318.92844	800.89459	520.72937	288.96796	770.14453	428.43298	286.26697	760.16077	344.64337	300.86191	812.69110	341.21289	296.81705	805.41418	381.11227	383.33038	797.90472	121.32140	298.27148	774.38470	116.18808	338.79660	705.38635	52.33529	354.95193	1008.83710	46.15742	384.67984	920.39874	48.07851	262.93243	902.06891	40.28168	608.53687	918.44293	705.38745	598.12921	899.97498	642.60486	642.30835	861.69318	623.93372	649.67853	880.79169	678.66156	519.96191	829.60510	507.52582	645.97144	804.06073	531.27515	661.35516	815.64569	418.62918	652.40210	827.30066	381.48755	646.48486	831.94476	331.03769	678.37207	788.51984	335.24704	583.91431	799.79669	122.98954	671.34479	771.33923	113.59045	625.29736	700.59338	57.26748	617.63245	1004.17267	42.34423	587.14941	911.23212	42.04940	708.67255	891.57916	43.77583	448.24237	727.32666	1498.38782	453.90372	696.07489	1242.28394	286.79187	796.37665	1478.37305	608.46661	778.65997	1490.69653	458.84695	889.95215	1455.39941	570.36249	680.96252	1396.45813 
81	0.400	352.85941	918.90735	973.10895	602.96051	916.69696	990.89496	416.29565	696.62830	1007.97607	542.43988	688.27515	1012.98541	335.06769	919.90826	681.19476	324.34818	897.67285	649.31439	370.76370	897.86633	601.60901	354.41763	909.71588	637.57532	442.64130	829.22607	508.68698	318.93442	800.89441	520.72827	288.93436	770.13721	428.43631	286.27914	760.17072	344.66174	300.87854	812.71741	341.25717	296.81583	805.34851	381.09607	383.29465	797.85883	121.30007	298.28229	774.38074	116.20615	338.74316	705.36005	52.35492	354.94485	1008.84479	46.13997	384.68192	920.36859	48.05844	262.90662	902.10938	40.29755	608.56207	918.41510	705.36633	598.10797	899.96576	642.62305	642.32751	861.72272	623.95105	649.68237	880.78754	678.68042	519.96588	829.59833	507.52417	645.97131	804.06073	531.27576	661.31348	815.64063	418.58847	652.41406	827.28351	381.46478	646.44513	831.87646	331.04294	678.37091	788.52338	335.21722	583.89478	799.75385	122.96803	671.35632	771.34540	113.60781	625.30878	700.59729	57.29700	617.64526	1004.19470	42.38812	586.58026	911.27917	42.19733	708.68378	891.60596	43.77987	448.14124	727.37024	1498.40125	453.90366	696.07501	1242.28406	286.74222	796.39429	1478.36865	608.44696	778.66016	1490.67932	458.84839	889.97705	1455.40796	570.33258	680.93103	1396.45459 
82	0.405	352.79657	918.93481	973.11267	602.99017	916.66644	990.91827	416.34607	696.60828	1008.00281	542.47607	688.27014	1013.01306	335.00122	919.89569	681.17761	324.33270	897.64111	649.31598	370.77164	897.89124	601.63904	354.37759	909.66217	637.58710	442.63855	829.23090	508.68967	318.85788	800.89893	520.71582	288.99124	770.14331	428.46860	286.26004	760.16754	344.65314	300.87943	812.70026	341.25189	296.86649	805.46130	381.10864	383.28912	797.84985	121.30778	298.29150	774.40405	116.21816	338.78708	705.33655	52.33654	354.92395	1008.84595	46.17244	384.65674	920.39014	48.08066	262.93051	902.09668	40.29399	608.50146	918.43378	705.37592	598.11743	899.95239	642.60327	642.30414	861.69617	623.95032	649.65137	880.76929	678.67206	519.90576	829.57281	507.50653	645.97046	804.04681	531.25482	661.35602	815.62610	418.58356	652.41467	827.29791	381.46442	646.45313	831.92096	331.02014	678.35376	788.51025	335.20032	583.93835	799.73822	122.98403	671.32611	771.32300	113.59802	625.30542	700.59235	57.28147	617.67944	1004.21594	42.40128	586.59064	911.25751	42.19197	708.66663	891.57715	43.78695	448.13904	727.39709	1498.43726	453.91830	696.07562	1242.27185	286.71658	796.44910	1478.36475	608.37225	778.65472	1490.67761	458.78479	890.02112	1455.41284	570.28333	680.96307	1396.46118 
